PathFileType	4	(X/Y/Z)	/Users/itak/Documents/Research/Walk-IL/dataset/trc/00487_00167.trc
DataRate	CameraRate	NumFrames	NumMarkers	Units	OrigDataRate	OrigDataStartFrame	OrigNumFrames
100.000000	100.000000	4	53	mm	100.000000	64	516
Frame#	Time	RPSI			LPSI			L3			STRN			T10			C7			CLAV			RBAK			LBAK			LSHO			LUPA			LAEL			LAOL			LWTS			LWPS			LFRA			LIFD			LHPS			LHTS			RSHO			RUPA			RAEL			RAOL			RWTS			RWPS			RFRA			RIFD			RHTS			RHPS			RBHD			LFHD			RFHD			LBHD			LHIP			RHIP			RASI			LASI			LKNE			LTHI			LANK			LTIP			LTOE			LMT1			LMT5			LHEE			RKNE			RTHI			RANK			RTIP			RTOE			RMT1			RMT5			RHEE			
		X1	Y1	Z1	X2	Y2	Z2	X3	Y3	Z3	X4	Y4	Z4	X5	Y5	Z5	X6	Y6	Z6	X7	Y7	Z7	X8	Y8	Z8	X9	Y9	Z9	X10	Y10	Z10	X11	Y11	Z11	X12	Y12	Z12	X13	Y13	Z13	X14	Y14	Z14	X15	Y15	Z15	X16	Y16	Z16	X17	Y17	Z17	X18	Y18	Z18	X19	Y19	Z19	X20	Y20	Z20	X21	Y21	Z21	X22	Y22	Z22	X23	Y23	Z23	X24	Y24	Z24	X25	Y25	Z25	X26	Y26	Z26	X27	Y27	Z27	X28	Y28	Z28	X29	Y29	Z29	X30	Y30	Z30	X31	Y31	Z31	X32	Y32	Z32	X33	Y33	Z33	X34	Y34	Z34	X35	Y35	Z35	X36	Y36	Z36	X37	Y37	Z37	X38	Y38	Z38	X39	Y39	Z39	X40	Y40	Z40	X41	Y41	Z41	X42	Y42	Z42	X43	Y43	Z43	X44	Y44	Z44	X45	Y45	Z45	X46	Y46	Z46	X47	Y47	Z47	X48	Y48	Z48	X49	Y49	Z49	X50	Y50	Z50	X51	Y51	Z51	X52	Y52	Z52	X53	Y53	Z53	

65	0.64	-1491.735473632812	953.2177734375	-273.2896118164062	-1407.579711914062	946.7708129882812	-388.8761596679688	-1451.846801757812	1052.133666992188	-298.6351928710938	-1207.304809570312	1238.353759765625	-158.2004852294922	-1460.751220703125	1176.495361328125	-300.1173706054688	-1399.163696289062	1442.391845703125	-250.3047027587891	-1232.510864257812	1352.307373046875	-178.9137573242188	-1503.03857421875	1326.796752929688	-197.7332000732422	-1384.801879882812	1395.723754882812	-354.4467163085938	-1256.700561523438	1411.502197265625	-377.3852233886719	-1228.614501953125	1296.126098632812	-474.0899047851562	-1210.341064453125	1080.479370117188	-507.7400207519531	-1310.679809570312	1070.09228515625	-481.7971496582031	-1162.499389648438	875.7821044921875	-433.1277465820312	-1178.180908203125	861.439453125	-504.1848449707031	-1189.331176757812	992.2252197265625	-508.3571166992188	-1159.231079101562	714.5396728515625	-435.0128479003906	-1172.958618164062	783.1021728515625	-500.0306091308594	-1147.107177734375	789.1489868164062	-433.0728454589844	-1413.145874023438	1411.30322265625	-77.49757385253906	-1466.844848632812	1354.352783203125	-18.00003623962402	-1509.25244140625	1069.820434570312	35.23058319091797	-1541.6083984375	1057.525390625	-23.14865493774414	-1422.148071289062	852.2837524414062	29.94784736633301	-1506.242797851562	847.5493774414062	58.03053665161133	-1516.194091796875	1011.675354003906	45.00391006469727	-1441.633178710938	697.0199584960938	34.90087509155273	-1423.904541015625	754.3279418945312	44.8125114440918	-1499.96630859375	758.4050903320312	60.14402008056641	-1337.828369140625	1639.65625	-126.5663757324219	-1157.168579101562	1637.817504882812	-229.2439880371094	-1201.389404296875	1641.962524414062	-106.0972442626953	-1293.18359375	1640.277099609375	-299.3238220214844	-1209.415771484375	861.897705078125	-394.1091918945312	-1483.637573242188	845.148681640625	-97.88616943359375	-1362.819091796875	884.1685180664062	-79.94005584716797	-1202.116088867188	902.2644653320312	-274.0315551757812	-1069.355224609375	480.3409118652344	-273.5180358886719	-1093.389282226562	636.8731079101562	-297.1298217773438	-1143.006591796875	67.81011199951172	-346.3143615722656	-1072.529174804688	324.0761108398438	-304.8373107910156	-981.0133056640625	78.83562469482422	-168.55078125	-1061.57861328125	75.0758056640625	-181.9088745117188	-1008.169128417969	80.19618988037109	-278.4122619628906	-1213.433715820312	68.8505859375	-312.0075378417969	-1463.3623046875	455.0523986816406	-143.9440155029297	-1455.216674804688	708.2431030273438	-75.31668853759766	-1555.37646484375	40.31932067871094	-226.6111602783203	-1479.616577148438	309.4364624023438	-155.6976623535156	-1343.88671875	50.19119644165039	-163.1622161865234	-1380.71435546875	55.04335403442383	-225.2378234863281	-1450.042358398438	47.34932708740234	-139.4856414794922	-1588.47998046875	31.53414535522461	-298.9124755859375	
66	0.65	-1487.743896484375	952.413330078125	-271.3281860351562	-1403.630126953125	945.8201904296875	-386.9347229003906	-1447.998657226562	1051.326538085938	-296.7607727050781	-1203.157958984375	1237.173828125	-155.9517974853516	-1456.591430664062	1175.6396484375	-297.8997192382812	-1394.712768554688	1441.452026367188	-248.0547180175781	-1228.232055664062	1351.146728515625	-176.7157897949219	-1498.784057617188	1326.015747070312	-195.4974365234375	-1380.442260742188	1394.735229492188	-352.1541442871094	-1252.352905273438	1410.250122070312	-375.1797790527344	-1224.713012695312	1294.77587890625	-471.953857421875	-1207.425048828125	1079.080322265625	-505.7324829101562	-1307.83349609375	1069.149047851562	-479.5617370605469	-1160.470336914062	874.0128784179688	-431.6178588867188	-1176.507080078125	859.87744140625	-502.699951171875	-1186.92431640625	990.7100830078125	-506.5823669433594	-1157.0849609375	712.8863525390625	-433.543212890625	-1171.682006835938	781.4979858398438	-498.6795959472656	-1145.368408203125	787.396728515625	-431.804931640625	-1408.758422851562	1410.37060546875	-75.27246856689453	-1462.616943359375	1353.559448242188	-15.76560306549072	-1505.948608398438	1069.196411132812	37.62174606323242	-1538.292358398438	1056.8984375	-20.7364616394043	-1418.988403320312	851.6040649414062	32.46543121337891	-1503.073852539062	846.89599609375	60.52936553955078	-1512.936157226562	1011.039916992188	47.41299438476562	-1438.487426757812	696.3645629882812	37.5097770690918	-1420.743774414062	753.6701049804688	47.3631477355957	-1496.8125	757.75341796875	62.68346405029297	-1332.937744140625	1638.632934570312	-124.3335113525391	-1152.5537109375	1636.566284179688	-227.4372100830078	-1196.460205078125	1640.829711914062	-104.1713256835938	-1288.6884765625	1639.053833007812	-297.1589050292969	-1205.46630859375	860.9493408203125	-392.0148620605469	-1480.01708984375	844.5755004882812	-95.9195556640625	-1359.086303710938	883.2738647460938	-77.90106964111328	-1198.015380859375	901.5134887695312	-271.7837219238281	-1065.200439453125	479.7564086914062	-270.9471740722656	-1090.23779296875	635.8961181640625	-295.1424560546875	-1124.48095703125	64.04659271240234	-335.718994140625	-1062.940795898438	323.3544921875	-298.9859313964844	-965.023681640625	82.85723876953125	-156.2739868164062	-1045.158569335938	76.54534912109375	-170.6760864257812	-990.8715209960938	81.48136901855469	-266.5672912597656	-1195.313720703125	63.75638961791992	-302.3187561035156	-1461.832763671875	454.6369323730469	-143.2178497314453	-1452.077758789062	707.6282348632812	-73.68406677246094	-1555.36279296875	40.35782241821289	-226.6410827636719	-1478.711791992188	309.1612854003906	-155.2172393798828	-1343.90087890625	50.17652130126953	-163.0926513671875	-1380.7060546875	55.02992630004883	-225.1953277587891	-1450.10498046875	47.32184219360352	-139.4566955566406	-1588.45068359375	31.60900688171387	-298.9707336425781	
67	0.66	-1483.581665039062	951.5260620117188	-269.3321838378906	-1399.51416015625	944.8126831054688	-384.9414978027344	-1444.002563476562	1050.410766601562	-294.8675842285156	-1198.871459960938	1235.905151367188	-153.6982421875	-1452.29736328125	1174.7099609375	-295.6994018554688	-1390.102172851562	1440.423095703125	-245.8176422119141	-1223.806396484375	1349.900146484375	-174.5240325927734	-1494.388916015625	1325.156372070312	-193.2812652587891	-1375.896728515625	1393.6572265625	-349.8899230957031	-1247.814575195312	1408.908935546875	-372.9847106933594	-1220.598388671875	1293.317749023438	-469.7935791015625	-1204.2587890625	1077.574951171875	-503.64794921875	-1304.746337890625	1068.104858398438	-477.2792663574219	-1158.240966796875	872.0791015625	-430.1670227050781	-1174.663696289062	858.2076416015625	-501.2681579589844	-1184.290283203125	989.0791015625	-504.7711791992188	-1155.595581054688	710.9098510742188	-432.4200134277344	-1170.267333984375	779.7639770507812	-497.4275817871094	-1143.324462890625	785.4959106445312	-430.5811157226562	-1404.218139648438	1409.3466796875	-73.06998443603516	-1458.236938476562	1352.662841796875	-13.55465698242188	-1502.456420898438	1068.474731445312	40.00730895996094	-1534.799926757812	1056.170166015625	-18.32949256896973	-1415.615234375	850.8447875976562	34.98078536987305	-1499.693359375	846.1590576171875	63.03969192504883	-1509.492065429688	1010.306579589844	49.8332405090332	-1435.094848632812	695.63134765625	40.17704010009766	-1417.34814453125	752.9434204101562	49.96266555786133	-1493.430297851562	757.02099609375	65.27627563476562	-1327.887451171875	1637.518432617188	-122.1390609741211	-1147.779174804688	1635.245361328125	-225.6443939208984	-1191.39208984375	1639.639038085938	-102.2810668945312	-1284.019775390625	1637.716674804688	-295.0423889160156	-1201.401123046875	859.9071655273438	-389.8675842285156	-1476.261108398438	843.9219970703125	-93.881591796875	-1355.207641601562	882.3090209960938	-75.78550720214844	-1193.768188476562	900.6365966796875	-269.48046875	-1060.975341796875	479.0512084960938	-268.4987487792969	-1086.940185546875	634.7606201171875	-293.3253784179688	-1106.010131835938	60.83271026611328	-325.13330078125	-1053.3828125	322.7786560058594	-293.2355041503906	-949.3631591796875	87.266357421875	-144.0882873535156	-1028.948486328125	78.42991638183594	-159.5830841064453	-973.7786254882812	83.22882843017578	-254.7973022460938	-1177.207641601562	59.2067756652832	-292.6348876953125	-1460.125	454.1700134277344	-142.3968200683594	-1448.788452148438	706.9468994140625	-72.00928497314453	-1555.33740234375	40.40643692016602	-226.6729125976562	-1477.663818359375	308.8321533203125	-154.6732940673828	-1343.89990234375	50.1519775390625	-163.0229187011719	-1380.687744140625	55.01480865478516	-225.1476745605469	-1450.159545898438	47.28917694091797	-139.4237976074219	-1588.408203125	31.70156669616699	-299.0448913574219	
68	0.67	-1479.2470703125	950.5685424804688	-267.2994384765625	-1395.21435546875	943.7427978515625	-382.8772888183594	-1439.841552734375	1049.387939453125	-292.9341430664062	-1194.444213867188	1234.557983398438	-151.4399566650391	-1447.876220703125	1173.704956054688	-293.5111694335938	-1385.337280273438	1439.307983398438	-243.5984802246094	-1219.235473632812	1348.5771484375	-172.3398895263672	-1489.850219726562	1324.22021484375	-191.0905151367188	-1371.1767578125	1392.48876953125	-347.6588134765625	-1243.09375	1407.483642578125	-370.8089904785156	-1216.278076171875	1291.76318359375	-467.6143188476562	-1200.834838867188	1075.971557617188	-501.4875793457031	-1301.400390625	1066.96240234375	-474.955322265625	-1155.819213867188	869.9912109375	-428.7564086914062	-1172.628784179688	856.4378662109375	-499.8710327148438	-1181.408813476562	987.3417358398438	-502.9139709472656	-1154.837890625	708.6290283203125	-431.6554565429688	-1168.689575195312	777.91064453125	-496.26123046875	-1141.044677734375	783.4338989257812	-429.3908996582031	-1399.531127929688	1408.2421875	-70.89646911621094	-1453.707763671875	1351.674438476562	-11.37319183349609	-1498.758544921875	1067.661499023438	42.38076782226562	-1531.114501953125	1055.348999023438	-15.93596935272217	-1412.034423828125	850.0048828125	37.49526596069336	-1496.107788085938	845.3469848632812	65.55718994140625	-1505.849731445312	1009.484985351562	52.25603485107422	-1431.481689453125	694.819580078125	42.89543533325195	-1413.738159179688	752.1441040039062	52.61033630371094	-1489.839477539062	756.2160034179688	67.91580200195312	-1322.674194335938	1636.323364257812	-119.9790115356445	-1142.840209960938	1633.849853515625	-223.8669738769531	-1186.171630859375	1638.38671875	-100.4304351806641	-1279.17724609375	1636.284912109375	-292.9722595214844	-1197.219604492188	858.7811889648438	-387.6690063476562	-1472.369873046875	843.1891479492188	-91.77851867675781	-1351.182861328125	881.27197265625	-73.59427642822266	-1189.381225585938	899.6307983398438	-267.1234436035156	-1056.656127929688	478.2481079101562	-266.1510620117188	-1083.4443359375	633.4970703125	-291.6404113769531	-1087.734375	58.19837188720703	-314.6140747070312	-1043.898681640625	322.3644104003906	-287.6051025390625	-934.0658569335938	92.01057434082031	-132.1191101074219	-1013.003845214844	80.71315002441406	-148.7099151611328	-956.9920654296875	85.41093444824219	-243.21044921875	-1159.252563476562	55.24642562866211	-282.9714050292969	-1458.232666015625	453.6467895507812	-141.4691619873047	-1445.350830078125	706.1944580078125	-70.29216003417969	-1555.297607421875	40.46359634399414	-226.70654296875	-1476.463256835938	308.4450073242188	-154.0683746337891	-1343.885986328125	50.11882400512695	-162.9423675537109	-1380.658081054688	54.99857711791992	-225.0943450927734	-1450.203125	47.24961090087891	-139.3854522705078	-1588.350219726562	31.81599998474121	-299.1310424804688	
